<svg xmlns="http://www.w3.org/2000/svg" viewBox="0 0 90.5 85.78"><defs><style>.cls-1{fill:#1d1d1b;}</style></defs><title>Black</title><g id="Layer_2" data-name="Layer 2"><g id="Layer_2-2" data-name="Layer 2"><path class="cls-1" d="M18.71,56H11.27V0H0V85.78H18.71a5.67,5.67,0,0,0,5.67-5.67V61.71A5.67,5.67,0,0,0,18.71,56ZM11.27,73.27V68.55h.66v4.72Z"/><path class="cls-1" d="M37.84,73.27H37.3V56H24.88V80.11a5.67,5.67,0,0,0,5.67,5.67H50.27V56H37.84Z"/><rect class="cls-1" x="24.88" y="42.94" width="12.42" height="12.51"/><rect class="cls-1" x="37.84" y="42.94" width="12.42" height="12.51"/><polygon class="cls-1" points="64.66 56.04 63.26 56.04 50.84 56.04 50.84 68.55 50.84 85.78 63.26 85.78 63.26 68.55 64.66 68.55 64.66 56.04"/><path class="cls-1" d="M84.84,56H70.71A5.66,5.66,0,0,0,65,61.71v18.4a5.67,5.67,0,0,0,5.67,5.67H84.84a5.66,5.66,0,0,0,5.66-5.67V61.71A5.66,5.66,0,0,0,84.84,56ZM77.46,73.27V68.55h.62v4.72Z"/></g></g></svg>