<svg xmlns="http://www.w3.org/2000/svg" viewBox="0 0 90.5 42.84"><defs><style>.cls-1{fill:#e52331;}</style></defs><title>Red</title><g id="Layer_2" data-name="Layer 2"><g id="Layer_2-2" data-name="Layer 2"><path class="cls-1" d="M18.71,0H0V41.33H11.27V29.74h7.44a5.67,5.67,0,0,0,5.67-5.67V5.67A5.67,5.67,0,0,0,18.71,0ZM11.27,17.23V12.51h.66v4.72Z"/><path class="cls-1" d="M40.88,0H30.55a5.67,5.67,0,0,0-5.67,5.67V29.74H37.3V12.51h.54V29.74H50.27V0Z"/><rect class="cls-1" x="24.88" y="30.33" width="12.42" height="12.51"/><rect class="cls-1" x="37.84" y="30.33" width="12.42" height="12.51"/><polygon class="cls-1" points="63.26 17.23 63.26 0 50.84 0 50.84 17.23 50.84 29.74 63.26 29.74 64.66 29.74 64.66 17.23 63.26 17.23"/><path class="cls-1" d="M84.84,0H70.71A5.67,5.67,0,0,0,65,5.67v18.4a5.67,5.67,0,0,0,5.67,5.67H84.84a5.66,5.66,0,0,0,5.66-5.67V5.67A5.66,5.66,0,0,0,84.84,0ZM77.46,17.23V12.51h.62v4.72Z"/></g></g></svg>